<?xml version="1.0" encoding="utf-8"?>
<!-- Generator: Adobe Illustrator 22.1.0, SVG Export Plug-In . SVG Version: 6.00 Build 0)  -->
<svg version="1.1" xmlns="http://www.w3.org/2000/svg" xmlns:xlink="http://www.w3.org/1999/xlink" xml:space="preserve">
	<symbol id="search" viewBox="0 0 17.6 17.6" x="0px" y="0px" style="enable-background:new 0 0 17.6 17.6;">
		<path d="M17.3,15.7l-3.4-3.4c1-1.3,1.5-2.9,1.5-4.6C15.4,3.4,12,0,7.7,0S0,3.4,0,7.7s3.4,7.7,7.7,7.7
			c1.7,0,3.3-0.6,4.6-1.5l3.4,3.4c0.2,0.2,0.4,0.3,0.8,0.3c0.6,0,1.1-0.5,1.1-1.1C17.6,16.3,17.5,16,17.3,15.7z M2.2,7.7
			c0-3,2.5-5.5,5.5-5.5s5.5,2.5,5.5,5.5s-2.5,5.5-5.5,5.5S2.2,10.7,2.2,7.7z"/>
	</symbol>
	<symbol id="cart" viewBox="264.2 371 20.3 18.8" enable-background="new 264.2 371 20.3 18.8">
		<path d="M283.7,378.2h-3.2l-3.4-6.8c-0.2-0.4-0.6-0.5-1-0.3c-0.4,0.2-0.5,0.6-0.3,1l3.1,6.1h-9.1l3.1-6.1
			c0.2-0.4,0-0.8-0.3-1c-0.4-0.2-0.8,0-1,0.3l-3.4,6.8H265c-0.4,0-0.8,0.3-0.8,0.8c0,0.4,0.3,0.8,0.8,0.8h0.2l0.9,3
			c-0.2,0.1-0.3,0.3-0.3,0.6c0,0.4,0.3,0.7,0.7,0.7l1.7,5.8h12.7l1.7-5.8c0.4,0,0.7-0.3,0.7-0.7c0-0.2-0.1-0.5-0.3-0.6l0.9-3h0.2
			c0.4,0,0.8-0.3,0.8-0.8C284.5,378.5,284.2,378.2,283.7,378.2z M279.6,388.3h-10.4l-1.2-4.3h12.9L279.6,388.3z M281.2,382.5h-13.7
			l-0.8-2.8H282L281.2,382.5z"/>
	</symbol>
	<symbol id="interior" viewBox="-259.4 -19.7 40.2 62.4" enable-background="new -259.4 -19.7 40.2 62.4">
		<g>
			<path d="M-244.2,18.3c-0.3,1-0.2,2.2,0,3.6c0.5,2.6,1.7,6,2.4,9.7h5.1c0.7-3.6,1.9-7,2.5-9.7c0.3-1.4,0.3-2.7,0-3.6
				c-0.3-0.9-0.9-1.6-2-2.3h-6C-243.4,16.7-244,17.4-244.2,18.3z"/>
			<path d="M-232.4,38.3h-13.8c-1.3,0-2.3,1-2.3,2.2v2.2h2.3h13.8h2.3v-2.2C-230.1,39.3-231.1,38.3-232.4,38.3z"/>
			<path d="M-225.3-17.4H-237c0-1.2-1-2.2-2.3-2.2c-1.3,0-2.3,1-2.3,2.2h-11.7l-6.1,25.5c0.8-0.5,1.6-1,2.6-1c1.4,0,2.2,0.8,2.9,1.4
				c0.7,0.6,1.2,0.8,1.4,0.8c0.3,0,0.8-0.3,1.5-0.8c0.7-0.5,1.6-1.4,2.9-1.4c1.3,0,2.2,0.8,2.9,1.4c0.7,0.5,1.2,0.8,1.5,0.8
				c0.1,0,0.3-0.1,0.6-0.2c0.2-0.1,0.5-0.4,0.9-0.6c0.5-0.4,1.1-1,2-1.2c0.3-0.1,0.6-0.1,0.9-0.1c1.3,0,2.2,0.8,2.9,1.4
				c0.7,0.5,1.2,0.8,1.5,0.8c0.3,0,0.8-0.3,1.4-0.8c0.7-0.6,1.6-1.4,2.9-1.4c1.4,0,2.2,0.8,2.9,1.4c0.3,0.3,0.6,0.5,0.9,0.6
				c0.2,0.1,0.4,0.2,0.6,0.2c0.3,0,0.8-0.3,1.4-0.9c0.7-0.6,1.6-1.4,2.9-1.4c1,0,1.8,0.5,2.6,1L-225.3-17.4z"/>
			<path d="M-235.9,33.8h-6.9c-0.7,0-1.1,0.5-1.1,1.1c0,0.6,0.5,1.1,1.1,1.1h6.9c0.7,0,1.1-0.5,1.1-1.1
				C-234.7,34.3-235.2,33.8-235.9,33.8L-235.9,33.8z"/>
			<path d="M-239.3,9.3c-0.1,0-0.3,0.1-0.6,0.2c-0.2,0.1-0.4,0.3-0.6,0.4v3.7h2.3V10C-238.7,9.6-239.1,9.3-239.3,9.3z"/>
		</g>
	</symbol>
	<symbol id="toy" viewBox="226 226.2 60 59.6" enable-background="new 226 226.2 60 59.6">
		<path d="M226,269.9l27.4,15.9v-23.3L226,246.5V269.9z M277.3,238.6v2.5c0,1.8-3.5,3.3-7.7,3.3
			c-4.3,0-7.7-1.5-7.7-3.3V237h0c0.3,1.7,3.6,3.1,7.7,3.1c4.3,0,7.7-1.5,7.7-3.3c0-1.8-3.5-3.3-7.7-3.3c-0.3,0-0.7,0-1,0l-5-2.9v3.1
			c0,1.8-3.5,3.3-7.7,3.3c-2.7,0-5-0.6-6.4-1.5c-0.2-0.2-0.4-0.4-0.7-0.6c-0.4-0.4-0.6-0.8-0.6-1.2v-3l-4.8,2.8c-0.3,0-0.7,0-1.1,0
			c-4.3,0-7.7,1.5-7.7,3.3c0,1.8,3.5,3.3,7.7,3.3c4.1,0,7.4-1.4,7.7-3.1h0v4.1c0,1.8-3.5,3.3-7.7,3.3c-4.3,0-7.7-1.5-7.7-3.3v-2.4
			l-6,3.5l27.5,16l27.4-15.9L277.3,238.6z M263.7,248.8c0,1.8-3.5,3.3-7.7,3.3c-4.3,0-7.7-1.5-7.7-3.3v-4.1h0c0.3,1.7,3.6,3.1,7.7,3.1
			c4.1,0,7.4-1.4,7.7-3.1h0V248.8L263.7,248.8z M258.6,262.7v23.1l27.4-15.9v-23.1L258.6,262.7z M255.9,232.8c4.3,0,7.7-1.5,7.7-3.3
			c0-1.8-3.5-3.3-7.7-3.3c-4.3,0-7.7,1.5-7.7,3.3C248.2,231.3,251.6,232.8,255.9,232.8"/>
	</symbol>
	<symbol id="zigzag" viewBox="0 0 1150 34" enable-background="new 0 0 1150 34">
		<path fill="#FFFFFF" d="M1121.3,0c-14.4,0-14.4,14-28.7,14s-14.4-14-28.7-14s-14.4,14-28.7,14c-14.4,0-14.4-14-28.8-14
			c-14.4,0-14.4,14-28.7,14c-14.4,0-14.4-14-28.7-14c-14.4,0-14.4,14-28.7,14S905.6,0,891.3,0c-14.4,0-14.4,14-28.7,14
			S848.1,0,833.8,0c-14.4,0-14.4,14-28.7,14c-14.4,0-14.4-14-28.8-14c-14.4,0-14.4,14-28.7,14c-14.4,0-14.4-14-28.7-14
			S704.4,14,690,14c-14.4,0-14.4-14-28.7-14c-14.4,0-14.4,14-28.7,14c-14.4,0-14.4-14-28.8-14c-14.4,0-14.4,14-28.7,14
			c-14.4,0-14.4-14-28.7-14c-14.4,0-14.4,14-28.7,14c-14.4,0-14.4-14-28.7-14c-14.4,0-14.4,14-28.8,14c-14.4,0-14.4-14-28.8-14
			c-14.4,0-14.4,14-28.8,14c-14.4,0-14.4-14-28.8-14c-14.4,0-14.4,14-28.8,14c-14.4,0-14.4-14-28.8-14s-14.4,14-28.8,14
			c-14.4,0-14.4-14-28.8-14c-14.4,0-14.4,14-28.7,14c-14.4,0-14.4-14-28.8-14c-14.4,0-14.4,14-28.8,14c-14.4,0-14.4-14-28.8-14
			c-14.4,0-14.4,14-28.8,14c-14.4,0-14.4-14-28.8-14C71.9,0,71.9,14,57.5,14C43.1,14,43.1,0,28.8,0S14.4,14,0,14v20h1150V14
			C1135.6,14,1135.6,0,1121.3,0z"/>
	</symbol>
	<symbol id="zigzag__product-week" viewBox="0 0 1150 23" enable-background="new 0 0 1150 23">
		<path d="M1150,23c-9,0-13.7-4.6-17.5-8.3c-3.4-3.3-5.9-5.7-11.2-5.7c-5.4,0-7.8,2.4-11.2,5.7
			c-3.8,3.7-8.5,8.3-17.5,8.3s-13.7-4.6-17.5-8.3c-3.4-3.3-5.9-5.7-11.2-5.7s-7.8,2.4-11.2,5.7c-3.8,3.7-8.5,8.3-17.5,8.3
			s-13.7-4.6-17.5-8.3c-3.4-3.3-5.9-5.7-11.2-5.7c-5.4,0-7.8,2.4-11.2,5.7c-3.8,3.7-8.5,8.3-17.5,8.3s-13.7-4.6-17.5-8.3
			c-3.4-3.3-5.9-5.7-11.2-5.7c-5.4,0-7.8,2.4-11.2,5.7C933.7,18.4,929,23,920,23s-13.7-4.6-17.5-8.3c-3.4-3.3-5.9-5.7-11.2-5.7
			c-5.4,0-7.8,2.4-11.2,5.7c-3.8,3.7-8.5,8.3-17.5,8.3s-13.7-4.6-17.5-8.3c-3.4-3.3-5.9-5.7-11.2-5.7c-5.4,0-7.8,2.4-11.2,5.7
			C818.7,18.4,814,23,805,23c-9,0-13.7-4.6-17.5-8.3c-3.4-3.3-5.9-5.7-11.2-5.7c-5.4,0-7.8,2.4-11.2,5.7c-3.8,3.7-8.5,8.3-17.5,8.3
			c-9,0-13.7-4.6-17.5-8.3c-3.4-3.3-5.9-5.7-11.2-5.7s-7.8,2.4-11.2,5.7C703.8,18.4,699,23,690,23c-9,0-13.7-4.6-17.5-8.3
			c-3.4-3.3-5.9-5.7-11.2-5.7c-5.4,0-7.8,2.4-11.2,5.7c-3.8,3.7-8.5,8.3-17.5,8.3s-13.7-4.6-17.5-8.3c-3.4-3.3-5.9-5.7-11.2-5.7
			c-5.4,0-7.8,2.4-11.2,5.7c-3.8,3.7-8.5,8.3-17.5,8.3c-9,0-13.7-4.6-17.5-8.3c-3.4-3.3-5.9-5.7-11.2-5.7s-7.8,2.4-11.2,5.7
			c-3.8,3.7-8.5,8.3-17.5,8.3c-9,0-13.7-4.6-17.5-8.3c-3.4-3.3-5.9-5.7-11.2-5.7c-5.4,0-7.8,2.4-11.2,5.7c-3.8,3.7-8.5,8.3-17.5,8.3
			c-9,0-13.7-4.6-17.5-8.3c-3.4-3.3-5.9-5.7-11.2-5.7c-5.4,0-7.8,2.4-11.2,5.7c-3.8,3.7-8.5,8.3-17.5,8.3s-13.7-4.6-17.5-8.3
			c-3.4-3.3-5.9-5.7-11.2-5.7c-5.4,0-7.8,2.4-11.2,5.7c-3.8,3.7-8.5,8.3-17.5,8.3s-13.7-4.6-17.5-8.3c-3.4-3.3-5.9-5.7-11.2-5.7
			s-7.8,2.4-11.2,5.7c-3.8,3.7-8.5,8.3-17.5,8.3c-9,0-13.7-4.6-17.5-8.3c-3.4-3.3-5.9-5.7-11.2-5.7c-5.4,0-7.8,2.4-11.2,5.7
			c-3.8,3.7-8.5,8.3-17.5,8.3c-9,0-13.7-4.6-17.5-8.3c-3.4-3.3-5.9-5.7-11.2-5.7c-5.4,0-7.8,2.4-11.2,5.7c-3.8,3.7-8.5,8.3-17.5,8.3
			c-9,0-13.7-4.6-17.5-8.3c-3.4-3.3-5.9-5.7-11.2-5.7c-5.4,0-7.8,2.4-11.2,5.7C128.8,18.4,124,23,115,23c-9,0-13.7-4.6-17.5-8.3
			C94.1,11.4,91.6,9,86.3,9c-5.4,0-7.8,2.4-11.2,5.7c-3.8,3.7-8.5,8.3-17.5,8.3c-9,0-13.7-4.6-17.5-8.3C36.6,11.4,34.1,9,28.8,9
			c-5.4,0-7.8,2.4-11.2,5.7C13.7,18.4,9,23,0,23v-9c5.4,0,7.8-2.4,11.2-5.7C15,4.6,19.7,0,28.8,0c9,0,13.7,4.6,17.5,8.3
			c3.4,3.3,5.9,5.7,11.2,5.7c5.4,0,7.8-2.4,11.2-5.7C72.5,4.6,77.3,0,86.3,0c9,0,13.7,4.6,17.5,8.3c3.4,3.3,5.9,5.7,11.2,5.7
			c5.4,0,7.8-2.4,11.2-5.7c3.8-3.7,8.5-8.3,17.5-8.3c9,0,13.7,4.6,17.5,8.3c3.4,3.3,5.9,5.7,11.2,5.7c5.4,0,7.8-2.4,11.2-5.7
			c3.8-3.7,8.5-8.3,17.5-8.3c9,0,13.7,4.6,17.5,8.3c3.4,3.3,5.9,5.7,11.2,5.7c5.4,0,7.8-2.4,11.2-5.7c3.8-3.7,8.5-8.3,17.5-8.3
			c9,0,13.7,4.6,17.5,8.3c3.4,3.3,5.9,5.7,11.2,5.7c5.4,0,7.8-2.4,11.2-5.7c3.8-3.7,8.5-8.3,17.5-8.3c9,0,13.7,4.6,17.5,8.3
			c3.4,3.3,5.9,5.7,11.2,5.7c5.4,0,7.8-2.4,11.2-5.7c3.8-3.7,8.5-8.3,17.5-8.3c9,0,13.7,4.6,17.5,8.3c3.4,3.3,5.9,5.7,11.2,5.7
			s7.8-2.4,11.2-5.7c3.8-3.7,8.5-8.3,17.5-8.3c9,0,13.7,4.6,17.5,8.3c3.4,3.3,5.9,5.7,11.2,5.7c5.4,0,7.8-2.4,11.2-5.7
			c3.8-3.7,8.5-8.3,17.5-8.3c9,0,13.7,4.6,17.5,8.3c3.4,3.3,5.9,5.7,11.2,5.7c5.4,0,7.8-2.4,11.2-5.7c3.8-3.7,8.5-8.3,17.5-8.3
			c9,0,13.7,4.6,17.5,8.3c3.4,3.3,5.9,5.7,11.2,5.7c5.4,0,7.8-2.4,11.2-5.7c3.8-3.7,8.5-8.3,17.5-8.3c9,0,13.7,4.6,17.5,8.3
			c3.4,3.3,5.9,5.7,11.2,5.7c5.4,0,7.8-2.4,11.2-5.7c3.8-3.7,8.5-8.3,17.5-8.3s13.7,4.6,17.5,8.3c3.4,3.3,5.9,5.7,11.2,5.7
			c5.4,0,7.8-2.4,11.2-5.7c3.8-3.7,8.5-8.3,17.5-8.3c9,0,13.7,4.6,17.5,8.3c3.4,3.3,5.9,5.7,11.2,5.7c5.4,0,7.8-2.4,11.2-5.7
			c3.8-3.7,8.5-8.3,17.5-8.3c9,0,13.7,4.6,17.5,8.3c3.4,3.3,5.9,5.7,11.2,5.7c5.4,0,7.8-2.4,11.2-5.7C820,4.6,824.7,0,833.8,0
			c9,0,13.7,4.6,17.5,8.3c3.4,3.3,5.9,5.7,11.2,5.7s7.8-2.4,11.2-5.7c3.8-3.7,8.5-8.3,17.5-8.3c9,0,13.7,4.6,17.5,8.3
			c3.4,3.3,5.9,5.7,11.2,5.7s7.8-2.4,11.2-5.7C935,4.6,939.7,0,948.8,0s13.7,4.6,17.5,8.3c3.4,3.3,5.9,5.7,11.2,5.7s7.8-2.4,11.2-5.7
			c3.8-3.7,8.5-8.3,17.5-8.3s13.7,4.6,17.5,8.3c3.4,3.3,5.9,5.7,11.2,5.7c5.4,0,7.8-2.4,11.2-5.7c3.8-3.7,8.5-8.3,17.5-8.3
			s13.7,4.6,17.5,8.3c3.4,3.3,5.9,5.7,11.2,5.7s7.8-2.4,11.2-5.7c3.8-3.7,8.5-8.3,17.5-8.3s13.7,4.6,17.5,8.3
			c3.4,3.3,5.9,5.7,11.2,5.7V23z"/>
	</symbol>
	<symbol id="flower" viewBox="8 4.3 32 37.3" enable-background="new 8 4.3 32 37.3">
		<path d="M24,41.7c8.8,0,16-7.2,16-16C31.2,25.7,24,32.8,24,41.7z M12.6,20.8c0,2.5,2,4.4,4.4,4.4
			c0.9,0,1.8-0.3,2.5-0.8l0,0.3c0,2.5,2,4.4,4.4,4.4c2.5,0,4.4-2,4.4-4.4l0-0.3c0.7,0.5,1.6,0.8,2.5,0.8c2.5,0,4.4-2,4.4-4.4
			c0-1.8-1-3.3-2.5-4c1.5-0.7,2.5-2.2,2.5-4c0-2.5-2-4.4-4.4-4.4c-0.9,0-1.8,0.3-2.5,0.8l0-0.3c0-2.5-2-4.4-4.4-4.4
			c-2.5,0-4.4,2-4.4,4.4l0,0.3c-0.7-0.5-1.6-0.8-2.5-0.8c-2.5,0-4.4,2-4.4,4.4c0,1.8,1,3.3,2.5,4C13.7,17.5,12.6,19,12.6,20.8z
			M24,12.3c2.5,0,4.4,2,4.4,4.4c0,2.5-2,4.4-4.4,4.4c-2.5,0-4.4-2-4.4-4.4C19.6,14.3,21.5,12.3,24,12.3z M8,25.7c0,8.8,7.2,16,16,16
			C24,32.8,16.8,25.7,8,25.7z"/>
	</symbol>
	<symbol id="money" viewBox="46.2 56.8 46.6 27.3" enable-background="new 46.2 56.8 46.6 27.3">
		<path d="M88.9,56.8H50.1c-2.2,0-3.9,1.7-3.9,3.9v19.5c0,2.2,1.7,3.9,3.9,3.9h38.8c2.2,0,3.9-1.7,3.9-3.9V60.7
			C92.8,58.6,91,56.8,88.9,56.8z M49.2,81.8V59.6h40.2v22.2H49.2z"/>
		<path d="M53.1,77.9h32.4V63.5H53.1V77.9z M69.5,65.4c2.9,0,5.3,2.4,5.3,5.3c0,2.9-2.4,5.3-5.3,5.3c-2.9,0-5.3-2.4-5.3-5.3
			C64.2,67.7,66.6,65.4,69.5,65.4z"/>
	</symbol>
	<symbol id="heart" viewBox="47.5 50.1 33.1 27.9" enable-background="new 47.5 50.1 33.1 27.9">
		<path d="M80.5,58.8c0-4.8-3.9-8.7-8.7-8.7c-3.4,0-6.3,2-7.8,4.8c-1.4-2.8-4.4-4.8-7.8-4.8c-4.8,0-8.7,3.9-8.7,8.7
			c0,9.1,14.7,19.1,16.5,19.1C65.9,77.9,80.5,68,80.5,58.8z"/>
	</symbol>
	<symbol id="ball" viewBox="0 0 34.4 34.4" enable-background="new 0 0 34.4 34.4">
		<g>
			<path d="M0.3,14.1c-0.4,2.1-0.4,4.2,0,6.3l4.1-3.2L0.3,14.1z"/>
			<path d="M24.4,1.6C19.6-0.6,14-0.6,9.1,2l7.5,5.6L24.4,1.6z"/>
			<path d="M33.9,13.2l-4.8,3.7l4.9,3.7C34.5,18.2,34.5,15.6,33.9,13.2z"/>
			<path d="M9.2,32.4c4.8,2.5,10.7,2.7,15.7,0.1l-8.1-6.1L9.2,32.4z"/>
			<path d="M7.9,14.4L1.7,9.8c-0.3,0.7-0.6,1.4-0.8,2.1l5.3,4L7.9,14.4z"/>
			<path d="M18.6,25.1l8.3,6.2c0.3-0.2,0.6-0.4,0.8-0.6c0.3-0.2,0.6-0.5,0.9-0.8l-8.3-6.2L18.6,25.1z"/>
			<path d="M11.4,11.7L4,6.2C3.5,6.7,3.1,7.3,2.7,7.9l6.9,5.2L11.4,11.7z"/>
			<path d="M22.1,22.4l8.1,6.1c0.5-0.5,0.9-1.1,1.3-1.7L23.8,21L22.1,22.4z"/>
			<path d="M14.9,9L7.2,3.2C7,3.3,6.8,3.5,6.6,3.6c-0.4,0.3-0.8,0.6-1.1,1l7.7,5.7L14.9,9z"/>
			<path d="M25.6,19.6l7,5.2c0.3-0.7,0.6-1.3,0.9-2l-6.1-4.6L25.6,19.6z"/>
			<path d="M26.4,2.7L0.9,22.6c0.2,0.7,0.5,1.4,0.8,2.1L28.2,4C27.7,3.5,27.1,3.1,26.4,2.7z"/>
			<path d="M30.7,6.6c-0.3-0.4-0.6-0.8-0.9-1.1l-27,21C3,27,3.3,27.4,3.6,27.7c0.1,0.2,0.3,0.4,0.4,0.5L31.2,7.2
				C31,7,30.9,6.8,30.7,6.6z"/>
			<path d="M32.3,9L5.6,29.8c0.5,0.5,1.1,1,1.7,1.4l26-20.2C33,10.3,32.7,9.6,32.3,9z"/>
		</g>
	</symbol>
	<symbol id="rocket" viewBox="612.5 500.4 54.2 23.2" enable-background="new 612.5 500.4 54.2 23.2">
		<g>
			<path d="M652.8,506.1c-3.6-1-7.8-1.7-12.4-1.7c-2.9,0-5.5,0.2-7.7,0.6l-6.8-4.7l-13.5,0l5.8,6.2h8.4c-4.6,1.6-6.8,3.5-6.8,3.5
				l0,3.8c0,0,2.3,1.9,6.9,3.5l-8.6,0l-5.8,6.2l13.5,0l6.8-4.7c2.3,0.4,4.8,0.6,7.7,0.6c4.5,0,8.7-0.7,12.4-1.7
				c-1.2-1.8-1.9-3.7-1.9-5.9C650.9,509.8,651.7,507.9,652.8,506.1z"/>
			<path d="M656.3,507.1c-1.3,1.6-2,3.2-2,4.8c0,1.6,0.7,3.2,2,4.8c6.4-2.2,10.4-4.8,10.4-4.8S662.7,509.3,656.3,507.1z"/>
		</g>
	</symbol>
	<symbol id="present" viewBox="239.7 239.8 32.7 32.5" enable-background="new 239.7 239.8 32.7 32.5">
		<path d="M242.6,272.2h12.5v-13.9h-12.5V272.2z M270.7,248.6h-7.3c0.5-0.3,1-0.5,1.4-0.8c1.6-1.1,2.4-2.6,2.4-4
			c0-1.2-0.6-2.2-1.4-2.9c-0.8-0.7-1.9-1.1-3-1.1c-1.2,0-2.4,0.4-3.3,1.1c-1.5,1-2.6,2.5-3.4,4.1c0,0.1-0.1,0.2-0.1,0.2
			c-0.3-0.6-0.6-1.2-1-1.8c-0.7-1-1.5-1.9-2.5-2.5c-1-0.6-2.1-1.1-3.3-1.1c-1.2,0-2.3,0.5-3.2,1.3c-0.8,0.8-1.4,1.9-1.4,3.1
			c0,0.7,0.2,1.5,0.6,2.2c0.6,0.9,1.4,1.6,2.6,2.2h-6.6c-0.9,0-1.6,0.7-1.6,1.6v5.9h15.4v-7.5h1.9v7.5h15.4v-5.9
			C272.3,249.3,271.6,248.6,270.7,248.6 M248.4,246.3c-0.6-0.4-1-0.8-1.2-1.1c-0.2-0.4-0.3-0.7-0.3-1c0-0.5,0.2-1,0.7-1.5
			c0.4-0.4,1-0.7,1.6-0.7h0c0.7,0,1.4,0.2,2,0.7c1,0.7,2,1.8,2.6,3.2c0.3,0.7,0.6,1.4,0.8,2.1C251.5,247.7,249.5,247,248.4,246.3
			M258.9,244.7c0.6-0.8,1.2-1.5,1.9-1.9c0.7-0.5,1.4-0.7,2-0.7h0c0.6,0,1.1,0.2,1.5,0.5c0.4,0.3,0.6,0.7,0.6,1.2
			c0,0.5-0.3,1.3-1.5,2.1c-1.1,0.8-3.1,1.7-6.1,2.3C257.6,247,258.2,245.7,258.9,244.7 M256.9,272.2h12.5v-13.9h-12.5V272.2z"/>
	</symbol>
	<symbol id="arrow-left" viewBox="0 0 50 26" enable-background="new 0 0 50 26">
		<polygon points="50,11 7.7,11 15.8,2.8 13,0 0,13 0,13 0,13 13,26 15.8,23.2 7.7,15 50,15 "/>
	</symbol>
	<symbol id="arrow-right" viewBox="0 0 50 26" enable-background="new 0 0 50 26">
		<polygon points="0,11 42.3,11 34.2,2.8 37,0 50,13 50,13 50,13 37,26 34.2,23.2 42.3,15 0,15 "/>
	</symbol>
	<symbol id="map-pin" viewBox="0 0 66 100.8" enable-background="new 0 0 66 100.8">
		<path fill="#FFFFFF" d="M56.3,9.2C43.4-3.1,22.6-3.1,9.7,9.2c-12.9,12.3-12.9,32.2,0,44.5c0,0,23.3,21.8,23.3,47
			c0-25.2,23.3-47,23.3-47C69.2,41.5,69.2,21.5,56.3,9.2z"/>
		<path fill="#6BC6B3" d="M47,45.5c-0.6-3.3,0.1-6.9,0-10.3c-0.1-3.8-0.7-7.5-0.7-11.2c0-3,0.5-6.2-0.5-9.1c0.1-0.3,0.1-0.7,0.2-1
			c0.3-1.5-4.6-0.7-5.3,0.6c-0.5,0.4-0.7,0.9-0.5,1.3c0.1,0.1,0.1,0.2,0.1,0.4c-0.9,4.5-2.2,8.8-3.7,13.2c-0.6,1.7-1.2,3.3-1.8,4.9
			c-0.8-1.5-1.6-3.1-2.3-4.7c-1.9-4.8-3.7-9.7-6-14.3c0.3-2.1-4.5-1.9-5.4,0c-1.1,2.4-1,4.8-0.6,7.3c0.4,2.9,0.5,5.7,0.5,8.6
			c0.1,5.6,0.5,11.1,0.6,16.7c-0.5,0.6-0.6,1.2-0.1,1.9c0.2,0.3,0.5,0.5,0.8,0.8c1.3,1,4.9,0.2,4.9-1.8c0-5.8-0.4-11.5-0.6-17.3
			c0-0.6,0-1.1,0-1.7c0.1,0.2,0.2,0.4,0.2,0.6c0.9,2.2,1.8,4.4,3.1,6.5c1.2,2.1,1.8,4.3,2.5,6.5c-0.3,0.3-0.4,0.6-0.3,1
			c-0.1,0.3,0.1,0.4,0.4,0.5c0.9,0.8,2.6,0.4,3.5,0c0.4-0.2,0.8-0.4,1.2-0.6c0.5-0.3,1.2-1,1-1.6c0-0.1-0.1-0.3-0.1-0.4
			c0.7-1.8,1-3.6,1.4-5.5c0.4-2,1.1-3.9,1.8-5.8c0.1,0.9,0.1,1.7,0.2,2.6c0.3,3.6,0,7.1,0,10.7c0,1.2,0.1,2.3,0.3,3.4
			c0.1,0.5,0.5,2.5,0.4,2.6c-0.9,0.8-0.6,1.8,0.5,2c1.3,0.3,2.9-0.1,3.9-1C48.2,49.9,47.4,47.5,47,45.5z"/>
	</symbol>
	<symbol id="flag" viewBox="-11.3 -28.3 46.7 81.7" enable-background="new -11.3 -28.3 46.7 81.7">
		<g transform="translate(-755.000000, -443.000000)">
			<g transform="translate(215.000000, 119.000000)">
			</g>
			<g id="editor-flag-triangle-notification-glyph">
				<path fill="#63D1BB" d="M751.4,418.5v38.9l38.9-19.5L751.4,418.5z M743.7,496.3v-81.7h3.8v81.7H743.7z"/>
			</g>
		</g>
		<g>
			<rect x="-11.3" y="-28.3" fill="#231F20" width="3.8" height="81.7"/>
		</g>
	</symbol>
	<symbol id="html-academy" viewBox="0 0 154.38 195.33">
		<path stroke="#231f20" stroke-miterlimit="10" d="M78,.59,77.19.5.5,8.54V149.11l76.69,45.63,76.69-45.63V8.54Zm65.85,142.82L77.19,183.07,10.53,143.41V85.79L76.91,125.3l.11,7.16-45.54-27.1-.06,7,45.71,27.47.11,7.35L31.54,120l-.06,7,45.71,27.47,46.15-27.61v-7l0,0V97.1l20.56-12.28Zm0-66.06L125.56,88.09l-8.42,5L77,69.17l-.06,7,34.31,20.41-.3.18-.74.43L105.33,100,77,83.16l-.06,7,22.36,13.3L94,106.94l-.12.07L77,97.06l-.06,7L88,110.54l-11.29,6.78-66-39.26L76.82,38.31h0Zm0-7-67-39.51h0L10.53,70.31V17.58l66.66-7,66.66,7Z"/>
	</symbol>
	<symbol id="instagram" viewBox="53.1 53.2 21.8 21.3" enable-background="new 53.1 53.2 21.8 21.3">
		<path d="M74.9,65.3c0-2.4-0.3-4.8-0.3-7.1c0-0.8-0.1-1.5-0.2-2.3c-0.1-0.3-0.1-0.7-0.2-1.1
			c-0.3-0.2-0.2-0.6-0.5-0.8c-0.4-0.2-1.2-0.1-1.7-0.2c-0.7,0-1.3-0.1-1.9-0.2c-1.9-0.1-4-0.1-6-0.1c-2,0-4-0.1-5.7-0.4h-2.2
			c-0.1,0-0.1,0.1-0.2,0.1c-0.6,0-1.1,0.2-1.6,0.3c-0.2,0.1-0.4,0.2-0.7,0.3c-0.1,0.2-0.5,0.1-0.6,0.4c-0.2,0.2,0.2,0.5,0,0.6v0.9
			c0.2,0.1,0,0.6,0.1,0.8v1c0,1.3,0.1,2.4,0.1,3.7c0.5,2.8,0.4,6.5,0.1,9.4c0.2,0.6,0.4,1.1,0.5,1.7c0.3,0.5,0.3,1.1,0.7,1.5
			c0.5,0.2,1.2,0.2,1.9,0.2c0.4,0.1,0.7,0.3,1.1,0.3c2.8-0.2,5.5-0.2,8.4-0.2c2.7,0.2,5.8,0.2,8.3-0.2c0.2-0.1,0.1-0.5,0.2-0.8
			c-0.1-0.4,0.2-0.4,0.2-0.8C74.9,70.2,74.9,67.8,74.9,65.3z M61.9,59.1c0.8-0.2,1.5-0.3,2.4-0.3c0.7,0.1,1.3,0.3,1.9,0.5
			c0.1,0.2-0.2,0.5,0.2,0.7V60c0.1,0,0.1,0,0.2,0.1c0.4,0,0.8,0.2,1.1,0.4c0.5,0.1,0.5,0.5,1.1,0.4c-0.1,0.2-0.1,0.5-0.1,0.8
			c0.3,1.2,0.5,2.8,0.3,4.3c-0.2,0.2-0.2,0.4-0.3,0.7c-0.3,0.3-0.5,0.8-0.8,1.1c-0.1,0.2-0.3,0.4-0.5,0.5c-0.1,0.2-0.2,0.5-0.5,0.5
			c-0.3,0.2-0.6,0-0.8-0.1c-0.4,0.2-0.9,0.3-1.2,0.6c-0.8-0.1-1.6-0.2-2.4-0.3c-0.2-0.1-0.5-0.3-0.8-0.3c-0.2-0.2-0.5-0.4-0.8-0.5
			c-0.1-0.1-0.3-0.1-0.5-0.2c-0.2,0-0.2-0.2-0.5-0.2c-0.1-0.4-0.4-0.6-0.5-1.1c-0.2-0.3-0.3-0.8-0.5-1.2c0-1.4,0.1-2.7,0.4-3.8
			c0.3-0.6,0.8-1.1,1.1-1.7c0.2,0,0.4-0.1,0.4-0.3c0.3,0.1,0.4-0.1,0.7-0.1C61.7,59.6,61.7,59.3,61.9,59.1z M60.2,56.4
			c-0.1-0.3-0.1-0.7-0.1-1.1c0-0.3,0.3-0.3,0.3-0.5c0-0.1-0.1-0.1-0.2-0.1c0.1-0.1,0.7-0.1,0.8,0c0.1,0.5-0.4,0.5-0.5,0.7
			c0,0.2,0.3,0,0.5,0.1c0,0.9-0.1,1.5,0,2.2h-0.5c0,0.2,0.2,0.2,0.5,0.2c-0.1,0.3,0.1,0.4,0.1,0.6c-0.2,0.2-0.7,0-1.1,0.1
			C60,58,60.3,57.2,60.2,56.4z M59.5,54.8c0.1,0,0.1,0,0.2,0.1c0.2,0.3,0,0.7-0.1,0.9C59.4,55.6,59.6,55.1,59.5,54.8z M59.7,56.6
			c-0.1-0.1-0.2-0.2-0.2-0.5C59.7,56.2,59.7,56.4,59.7,56.6z M59.7,58c-0.1,0.1-0.1,0-0.1-0.2C59.7,57.7,59.7,57.9,59.7,58z
			 M59.5,58.2c0.2,0,0.1,0.2,0.2,0.2c0,0.2-0.3,0.2-0.4,0.1C59.4,58.4,59.5,58.3,59.5,58.2z M57.2,57c0-0.1,0-0.2-0.1-0.2
			c-0.1-0.7,0.1-1.4,0-2c0.3-0.2,0.8,0,1.1-0.1v1.1c-0.1,0.1-0.2,0.1-0.4,0.1c-0.1,0.3,0.3,0.1,0.4,0.3c0,0.9-0.1,1.8,0.2,2.4
			c-0.6-0.1-0.9,0.1-1.4,0.1c0.1-0.6,0-1.4,0.5-1.6C57.5,57,57.2,57.1,57.2,57z M56.7,57c-0.2,0-0.2-0.5-0.1-0.6
			C56.9,56.4,56.8,56.9,56.7,57z M56.5,58c0.1-0.3,0-0.3,0.1-0.7C56.8,57.3,56.8,58.1,56.5,58z M56.7,55.9c-0.3,0.1-0.3-0.3-0.2-0.4
			C56.8,55.5,56.9,55.8,56.7,55.9z M56.7,54.8c0,0.2-0.1,0.2-0.1,0.3c-0.2,0-0.1-0.2-0.2-0.2C56.5,54.8,56.6,54.8,56.7,54.8z
			 M56.5,58.5c0.1,0,0.1,0.3-0.1,0.2C56.5,58.7,56.5,58.6,56.5,58.5z M55.8,54.8c0,0.3-0.4,0.3-0.4,0H55.8z M54.8,54.9
			c0,0.2-0.3,0.2-0.4,0.4C54.2,55.1,54.5,54.8,54.8,54.9z M54.4,55.6c0.2-0.2,0.5-0.4,0.7-0.6c0-0.1,0.1-0.1,0.1-0.2h0.2
			c0.1,0.4-0.3,0.3-0.3,0.5c0,0.1-0.1,0.1-0.1,0.2c0,0.3,0.1,0.6,0.1,1c-0.3,0-0.3,0.3-0.6,0.2C54.5,56.3,54.3,56.1,54.4,55.6z
			 M54.5,58.9v-1.6c0.2-0.2,0.4-0.4,0.6-0.5c0.3,0.5,0.2,1.4,0.5,1.9C55.2,58.8,54.8,58.8,54.5,58.9z M72.7,70c-0.1,1-0.2,2-0.4,2.8
			c-2.9,0.1-6,0-8.9,0.2c-0.2,0-0.3,0-0.2-0.2c-0.3,0-0.3,0.2-0.5,0.2c0.2-0.3,0.4-0.9,0.2-1.3c-0.8,0-0.8,0.8-1.1,1.3
			c-0.7-0.1-1.1,0.1-1.8,0.1c0.2-0.7,0.7-1,0.9-1.7c-0.4-0.5-1,0.1-1.2,0.5c-0.2,0.5-0.6,0.8-0.8,1.3h-1c0.2-0.5,0.5-0.9,0.8-1.4
			c0.2-0.5,0.6-0.7,0.7-1.4c-0.2-0.3-0.4,0-0.7,0c-0.1,0.2-0.3,0.3-0.4,0.5c-0.2,0.4-0.5,0.7-0.7,1.1c-0.2,0.2-0.3,0-0.5,0.2
			c-0.4,0.3-0.6,0.7-1,1c-0.2-0.1,0-0.4,0.2-0.4c0-0.2-0.1-0.5,0.1-0.6c0.1-0.4,0.2-0.6,0.4-0.9c0.1-0.7,0.5-1.2,0.7-1.9
			c-0.6,0.1-0.7,0.6-1,1c-0.2,0.4-0.5,0.8-0.7,1.3c-0.2-0.1,0-0.6-0.1-0.8c0.1-0.6,0.3-1.1,0.4-1.7c0.1-0.2,0.2-0.5,0.2-0.8
			c0.2-0.2,0-0.6-0.1-0.8c-0.2,0-0.4,0.1-0.5,0.3c-0.2,0-0.2,0.5-0.3,0.3c0-2.6-0.5-4.8-0.5-7.4c0-0.3-0.2-0.4-0.2-0.7
			c1.6,0,3.1,0.1,4.8,0.2c-0.1,0.1-0.2,0.3-0.3,0.4c-0.1,0.1-0.2,0.2-0.4,0.3c-0.6,1.7-1,4-0.6,6.2c0.2,0.6,0.6,1,1,1.4
			c0.9,0.5,1.6,1.1,2.5,1.7c1.7,0.4,3.8,0.4,5.5,0c0.2-0.1,0.5-0.2,0.7-0.4c1.4-1.2,2.8-2.5,3-4.9v-1.4c-0.2-1.6-0.7-2.9-1.7-3.6
			c0.3-0.2,1.1,0,1.7,0.1c0.2,0,0.4,0,0.7,0c0.4,0,0.9-0.1,1.4,0c0.1,0.2,0.1,0.5,0.2,0.8c-0.1,1.7-0.2,3.3-0.2,5.1
			c0.1,0.5,0.1,1,0.2,1.4C73,68.2,72.9,69.1,72.7,70z M73.1,58.8c-0.6-0.1-1.2-0.3-1.9-0.4c0.1-0.3,0.8,0,1-0.2
			c0.4-0.2,0.3-0.9,0.3-1.5c0-0.3,0.1-0.6,0.1-1.1c-0.4-1-1.8-0.4-2.9-0.5c-0.2,0.7-0.5,1.8-0.3,2.7c0.2,0.5,1,0.3,1.5,0.5
			c-0.1,0.3-0.7,0.1-1,0.1c-0.3-0.1-0.7-0.1-1-0.2c-2.3,0.1-4.3,0-6.5,0.2c0.1-1.2,0.1-2.5-0.1-3.6h3.1c-0.3,0.4-0.9,0.5-1.3,0.8
			c-0.4,0.2-0.9,0.5-1.1,0.9c0.2,0.1,0.5-0.2,0.8-0.4c0.4-0.1,0.5-0.4,0.8-0.5c0.4-0.4,1.1-0.6,1.7-0.9c0.4,0,0.7,0,1,0.1
			c1.3,0,2.5,0.1,3.8,0.1c0.6,0.1,1.5,0.1,2,0.3c0.1,0.3,0.2,0.6,0.3,0.9C73.3,57.1,73.1,57.9,73.1,58.8z M67.2,55.1
			C67.3,55,67.2,55,67.2,55.1L67.2,55.1z M67.2,55.1c-0.5,0.2-1,0.3-1.4,0.7C66.3,55.6,66.9,55.5,67.2,55.1z M68.3,55.7
			C68.4,55.6,68.3,55.6,68.3,55.7L68.3,55.7z M66.5,56.6c0.7-0.2,1.2-0.6,1.7-0.9c-0.4,0-0.6,0.3-1,0.4
			C67.1,56.3,66.7,56.3,66.5,56.6z M65.8,55.8C65.7,55.8,65.9,55.9,65.8,55.8L65.8,55.8z M65.2,56.4C65.3,56.3,65.2,56.3,65.2,56.4
			L65.2,56.4z M65.1,56.5C65.2,56.5,65.2,56.4,65.1,56.5C65.1,56.4,65.1,56.4,65.1,56.5z M65,56.5C65.1,56.5,65.1,56.5,65,56.5
			C65,56.4,65,56.5,65,56.5z M64.2,57.1c0.3-0.1,0.6-0.3,0.8-0.6C64.7,56.7,64.4,56.9,64.2,57.1z M66.5,58.1c0.5,0,0.7-0.4,1.2-0.5
			c0.3-0.3,0.8-0.4,1-0.8c-0.6,0-0.8,0.4-1.2,0.5C67.2,57.7,66.7,57.8,66.5,58.1z M64.2,57.1C63.9,57.1,64.2,57.4,64.2,57.1
			L64.2,57.1z M63.6,57.5C63.7,57.5,63.8,57.5,63.6,57.5C63.7,57.4,63.6,57.5,63.6,57.5z M66.5,58.1C66.3,58.2,66.5,58.2,66.5,58.1
			L66.5,58.1z M65.3,59.9c-0.2-0.2-0.7-0.2-1-0.4c-0.7,0-1.2,0.1-1.7,0.2c-0.3,0.2-0.6,0.3-0.9,0.5c-0.3,0.2-0.4,0.4-0.8,0.5
			c-0.2,0.2-0.4,0.5-0.7,0.6c0,0.2-0.2,0.3-0.3,0.4c-0.1,0.1-0.1,0.3-0.2,0.4c0,0.1,0,0.3-0.1,0.3c0.1,1.5,0.3,2.9,0.7,4.2
			c0.3,0.6,1,0.8,1.4,1.3c0.6,0.3,1.3,0.4,2.1,0.5c0.3-0.1,0.6-0.1,0.9-0.1c1.2-0.2,2.1-0.7,2.8-1.4c0.1-0.3,0.3-0.5,0.5-0.7
			c-0.3-0.7,0.3-1.1,0.5-1.6c0-1.3-0.2-2.5-0.6-3.4c-0.3-0.6-0.9-0.8-1.4-1.1c-0.1,0-0.2,0-0.2-0.1C66.1,59.9,65.6,59.8,65.3,59.9z
			 M61.9,64.3c-0.1-0.1-0.1-0.2-0.2-0.4C62,63.8,61.9,64.1,61.9,64.3z M62,64.6C62,64.5,62.1,64.6,62,64.6C62,64.8,62,64.7,62,64.6z
			 M62.4,62.5C62.4,62.4,62.5,62.5,62.4,62.5C62.5,62.6,62.4,62.6,62.4,62.5z M64.1,60.4c-0.2,0.3,0,0.6,0.1,0.8
			C63.9,61.2,63.6,60.4,64.1,60.4z M64.5,64.3C64.4,64.3,64.5,64.3,64.5,64.3C64.6,64.3,64.5,64.4,64.5,64.3z M65.2,67.2
			c0-0.1,0.1,0,0.2,0C65.4,67.3,65.2,67.3,65.2,67.2z M67.4,64.7c-0.2-0.1-0.1,0.2-0.4,0.2c0.1-0.2,0.1-0.3,0.2-0.5
			C67.4,64.4,67.5,64.5,67.4,64.7z M66.3,60.9c0.2,0.1,0.4,0.2,0.6,0.4c0.1,0.2,0.2,0.4,0.4,0.5c0.1,0.8,0.2,1.5,0.2,2.4
			c-0.3,0.1-0.4,0.3-0.7,0.4c-0.8,0-1.4-0.2-1.9-0.5c-0.2-0.3-0.4-0.5-0.5-0.8v-1.1c0.2-0.2,0.3-0.4,0.5-0.6
			c0.2-0.1,0.5-0.2,0.5-0.6c0-0.1-0.1-0.1-0.1-0.2c0.2,0,0.2,0.2,0.4,0.2C65.9,61,66,60.8,66.3,60.9z"/>
	</symbol>
	<symbol id="facebook" viewBox="56.5 50 15 27.7" enable-background="new 56.5 50 15 27.7">
		<path d="M68.2,55.2c1,0,2,0,2.7-0.3c0.4-0.8,0.6-1.9,0.6-3c-0.2,0-0.1-0.3-0.2-0.4c0-0.2-0.3-0.2-0.3-0.4
			c-0.3-0.2-0.5-0.4-0.7-0.6c-0.7-0.2-1.4-0.3-2.2-0.5c-0.8,0-1.9-0.1-2.6,0.1c-2.6,0-4,1.1-5.3,2.4c0,0.1,0,0.2-0.1,0.2
			c-0.6,1.6-0.1,3.6-0.2,5.6c0.1,0.4,0.1,1,0.2,1.4c-1,0.3-2.2,0.4-3.4,0.5c-0.3,0.3-0.2,1.1-0.2,1.7c0.1,0.6,0.3,1.1,0.4,1.6
			c0.2,0.2,0.6,0.4,0.8,0.5c0.1,0,0.1,0.1,0.1,0.1c0.5,0.3,1.5,0,2.3,0.1c-0.1,2,0.3,3.9,0,5.7c0,0.3,0.3,0.4,0.2,0.8
			c0,1-0.1,2,0.2,2.7c-0.3,0.5-0.5,1-0.4,1.8c0.1,0,0.1,0.2,0.1,0.3c-0.1,0.5,0.6,0.2,0.5,0.7c0.2,0.5-0.4,0.2-0.4,0.5v0.9
			c0.5,0.3,1.5,0.2,2.3,0.2c0.9-0.4,2.2-0.5,2.8-1.2c0.5,0.2,0.9,0,1.2-0.2c0-0.3,0.3-0.3,0.2-0.7c0-0.3-0.2-0.5-0.1-0.9v-2.9
			c-0.2-2.3,0-4.9-0.3-7.2c0.9-0.1,1.9-0.1,2.6-0.4c0.4-0.5,0.4-1.2,0.5-1.9c0.2-0.2,0.2-0.6,0.2-1c0.2-0.2,0.1-0.7,0.1-1.1
			c-0.1-0.6-0.2-1.3-0.8-1.4c-0.9-0.2-2,0.6-3,0.3c0-1.1-0.3-2.3,0-3.4C66.8,55.6,67.5,55.4,68.2,55.2z M64.4,60
			c0.1,0.3,0.3,0.5,0.4,0.7c0.1,0,0.2,0,0.2,0.1c1.2,0.1,2.2-0.1,3.1-0.3c0,1-0.3,1.7-0.5,2.5c-0.7,0-1.5,0.3-2,0.2
			c-0.3,0.2-0.4,0.5-0.6,0.7c0,0.4,0.1,0.5,0,0.8c-0.2,0.1-0.1,0.6-0.2,0.8v1.5c0.1,0.3-0.1,0.3-0.1,0.5v3.5
			c-0.1,0.3,0.1,0.3,0.1,0.5v3c0.1,0.3-0.1,0.8,0.1,0.9c-0.1,0.4-0.4,0-0.8,0.1c-0.5,0.1-0.9,0.4-1.5,0.4c0.1-0.4,0.3-0.6,0.3-1.1
			c0-0.4-0.4-0.3-0.5-0.5c0.2-0.6,0.6-1.1,0.7-1.8c0.2-0.5,0.7-1.3,0.3-1.8c-0.5-0.1-0.5,0.3-0.8,0.4c0,0.1,0,0.2-0.1,0.2
			c0,0.1,0,0.2-0.1,0.2c0,0.1-0.2,0.1,0,0c0-0.1,0-0.2,0.1-0.2c0-0.1,0-0.2,0.1-0.2v-0.3c0.4-0.6,0.7-1.2,0.8-2
			c0.2-0.3,0.3-0.7,0.4-1c0.2-0.3,0.3-0.9,0.1-1.2c-0.5,0-0.8,0.3-0.9,0.7c-0.3-0.2,0.2-0.4,0.1-0.7c0.1-0.2,0.2-0.6,0.3-0.8
			c0.2-0.4,0.6-1.3,0-1.6c-0.4,0-0.6,0.2-0.7,0.5c-0.2,0.2-0.4,0.4-0.5,0.7c-0.4-0.1-0.1-0.7-0.2-1.1c-0.1-0.5,0.1-0.9,0-1.2
			c-0.6-0.8-2-0.1-3.2-0.3c-0.1-0.3-0.2-1-0.1-1.2c1-0.1,2.5,0.2,3.2-0.2c0-0.1,0-0.2,0.1-0.2c0.1-0.7-0.3-1-0.5-1.4
			c0.2-0.8,0-2,0.1-3c0.2-0.1,0.3-0.4,0.5-0.6c0.1-1,0.7-1.5,0.7-2.5c-0.3,0-0.6-0.1-0.6,0.2c-0.3-0.1-0.4,0.5-0.5,0.2
			c-0.1-0.5,0.2-0.6,0.3-1c0.6-0.4,1.2-0.8,1.9-1.2c1.7-0.2,4.6-0.4,6.1,0.2c0.1,0.6-0.3,0.9-0.2,1.5h-1.5c-1.1,0.2-2,0.7-3,1
			c-0.2,0.1-0.3,0.3-0.5,0.4c0,0.4-0.2,0.6-0.3,1C64.2,57.4,64.4,58.6,64.4,60z"/>
	</symbol>
	<symbol id="twitter" viewBox="52.3 53.8 23.5 20.2" enable-background="new 52.3 53.8 23.5 20.2">
		<path d="M75.7,57.9c-0.2-0.4-0.9-0.3-1.4-0.4h-1.1c0.1-0.4,0.3-0.6,0.5-1c0.1-0.4,0.3-0.7,0.2-1.3
			c0.1-0.2,0.2-0.4,0.3-0.6c0.1-0.1,0.2-0.5,0.1-0.7c-0.1-0.2-0.3-0.2-0.6-0.2c-0.1,0-0.2,0.1-0.2,0.1c-0.4,0.4-0.8,1-1.3,1.4
			c0,0-0.1,0-0.1,0c-0.1,0,0,0-0.1,0.1c-0.1,0.1-0.3,0.2-0.4,0.2c-0.3,0.2-0.5,0.4-0.9,0.5c-0.5-0.2-1.2-0.3-1.9-0.4
			c-1.2,0.1-2.3,0.2-3,0.7c-0.9,0.3-1.5,1-2.1,1.6c0,0.3-0.3,0.4-0.4,0.7c0,0,0,0.1-0.1,0.1c0,0.2-0.1,0.3-0.1,0.5
			c0,0.1,0.2,0.4,0,0.5c-0.8-0.1-1.5-0.6-2.1-1c-0.7-0.4-1.5-0.6-2.1-1.1c-0.7-0.3-1.3-0.8-1.8-1.3c-0.2-0.3-0.5-0.5-0.7-0.9
			c-0.4-0.2-0.2-0.9-0.7-0.9c-0.3,0-0.3,0.2-0.4,0.4c-0.1,0.2-0.4,0.2-0.4,0.5c0,0,0,0.1-0.1,0.1c-0.2,1.1-0.5,2-0.5,3.3
			c0.1,0.4,0.3,0.7,0.6,1c-0.4,0.1-0.7,0.2-0.9,0.5c-0.1,1.1,0.4,1.6,0.7,2.3c0.1,0.4,0.4,0.7,0.6,1c0,0.2,0.2,0.3,0.3,0.4
			c0,0.1,0.1,0.1,0.1,0.2c0,0.1,0.3,0.2,0.1,0.2c-0.4,0.1-1,0.1-1.3,0.4c-0.1,0.3-0.1,0.8,0,1.1c0,0.2,0.3,0.3,0.3,0.5
			c0.5,0.4,1.1,0.7,1.6,1.1c0.6,0.2,1.2,0.3,1.9,0.4c-0.1,0.3-0.3,0.6-0.6,0.7c-0.8,0.4-1.8,0.5-2.7,0.7c-0.6,0-1,0.2-1.6,0.2
			c-0.3,0.1-0.9,0.1-1.1,0.2c-0.1,0.1-0.1,0.1-0.2,0.2c-0.1,0.4,0.1,0.7,0.4,0.9c0,0.3,0.2,0.3,0.4,0.4c0.1,0.2,0.3,0.3,0.4,0.4
			c0.5,0.5,1.3,0.8,1.9,1.1c0.8,0.2,1.6,0.4,2.5,0.5c0.9,0.1,1.9,0.1,2.8,0.2h1c0.5,0.1,1.2,0.1,1.9,0.1c0.1-0.1,0.3-0.1,0.5-0.1
			c0.5-0.3,1.2-0.4,1.6-0.7c0.6-0.2,1-0.6,1.6-0.9c0.9-0.8,1.9-1.3,2.5-2.4c0.2-0.2,0.4-0.4,0.4-0.7c0.3-0.2,0.4-0.5,0.6-0.7
			c0.4-0.4,0.7-0.9,1-1.4c0.3-0.5,0.6-1.1,0.9-1.6c0-0.4,0.3-0.5,0.3-0.9c0.2-0.2,0.2-0.7,0.4-0.9c0-0.3,0-0.4,0.1-0.6
			c0-1.3,0-2.4-0.3-3.4c0.6-0.2,1.2-0.3,1.6-0.6C75.4,58.9,75.9,58.5,75.7,57.9z M72.3,61.9c-0.2,0.9-0.6,1.4-1,2
			c0.1,0.4-0.1,0.5-0.1,0.9c-0.2,0.3-0.3,0.7-0.4,1c-0.2,0.3-0.3,0.6-0.5,0.9c-0.4,0.5-0.8,1.1-1.2,1.6c-0.4,0.6-0.9,1-1.3,1.5
			c-0.4,0.5-0.9,0.9-1.4,1.3c-0.5,0.2-0.9,0.4-1.3,0.7c-0.2,0.1-0.5,0.2-0.7,0.3c-0.2,0.1-0.5,0.1-0.7,0.3c-1.1,0.1-2.3,0.2-3.6,0.1
			c-1-0.1-2.1-0.2-3-0.4c-0.9-0.2-1.5-0.7-2.3-1c0.2-0.2,0.6-0.2,1-0.2c0-0.2,0.4,0,0.4-0.1c0.3,0.1,0.3-0.1,0.5-0.1
			c0.6-0.2,1.2-0.3,1.7-0.6c0.3-0.1,0.4-0.4,0.7-0.6c0-0.2,0.1-0.3,0.2-0.4c0-0.3,0.2-0.4,0.1-0.8c0.1-0.2,0.3-0.3,0.3-0.7
			c-0.1-0.1-0.1-0.3-0.3-0.4c0-0.2-0.4-0.1-0.4-0.2c-0.3,0-0.4,0-0.6-0.1c-0.2,0-0.5,0.1-0.5-0.1c-0.8,0-1.3-0.4-1.9-0.7
			c0.4-0.3,1-0.4,1.3-0.7c0.5-0.1,1.1-0.1,1.1-0.7c0-0.7-0.8-0.7-1.3-0.8c-0.8-0.7-1.2-1.7-1.8-2.5c0.2-0.2,0.6-0.2,0.7-0.4
			c0.5,0.1,0.5-0.3,0.7-0.5c0-0.5-0.3-0.6-0.6-0.8c-0.3-0.2-0.5-0.5-0.7-0.7c0-0.8,0-1.7,0.1-2.4c0.1,0,0.1,0,0.1,0.1
			c0.2,0.4,0.6,0.8,0.8,1.2c0.5,0.4,0.9,0.9,1.6,1.1c0.5,0.4,1.1,0.6,1.6,1c0.6,0.3,1.2,0.6,1.7,0.9c0.7,0.2,1.1,0.7,2,0.6
			c0.2-0.1,0.4-0.2,0.6-0.3c0.3-0.5-0.1-1.1,0.1-1.6c0.3-0.7,0.8-1,1.3-1.5c0.3-0.2,0.6-0.3,0.8-0.5c0.3-0.1,0.7-0.2,1-0.4
			c0.4,0,0.7-0.1,1-0.1h1.3c0.2,0.1,0.5,0.1,0.7,0.1c0.2,0.1,0.4,0.3,0.7,0.4c0.8,0.7,1.3,1.7,1.4,3C72.2,60.9,72.3,61.3,72.3,61.9z
			 M72.6,56.3c-0.1,0.3-0.2,0.7-0.6,0.8c0-0.1-0.1-0.1-0.1-0.2c0-0.2,0.2-0.2,0.3-0.3C72.3,56.5,72.4,56.3,72.6,56.3
			C72.6,56.2,72.7,56.3,72.6,56.3z M67.1,59.3c0.2,0.1,0.3,0.3,0.5,0.4c0.1,0.2,0.3,0.3,0.6,0.4c0-0.2,0.3,0,0.4-0.2
			c0.2,0,0.2-0.2,0.3-0.3c0-0.5-0.1-1-0.4-1.3C67.8,57.8,66.8,58.3,67.1,59.3z"/>
	</symbol>
	<symbol id="footer-logo" viewBox="0 0 101.6 34.1" enable-background="new 0 0 101.6 34.1">
		<g>
			<path d="M19.1,21.5c-0.1-2.7-0.5-5.3-0.5-8c0-2.2,0.4-4.4-0.4-6.5c0-0.2,0.1-0.5,0.1-0.7c0.2-1-3.3-0.5-3.8,0.5
				c-0.3,0.3-0.5,0.6-0.4,1c0,0.1,0.1,0.2,0.1,0.3c-0.7,3.2-1.6,6.3-2.6,9.4c-0.4,1.2-0.9,2.3-1.3,3.5c-0.6-1.1-1.2-2.2-1.6-3.4
				c-1.4-3.4-2.6-6.9-4.3-10.2c0.2-1.5-3.2-1.4-3.9,0c-0.8,1.7-0.7,3.4-0.4,5.2c0.3,2,0.4,4,0.4,6.1c0,4,0.4,7.9,0.4,11.9
				c-0.4,0.4-0.5,0.9-0.1,1.4c0.2,0.2,0.4,0.4,0.6,0.5C2.4,33.2,5,32.6,5,31.2c0-4.1-0.3-8.2-0.4-12.4c0-0.4,0-0.8,0-1.2
				c0.1,0.1,0.1,0.3,0.2,0.4c0.6,1.6,1.3,3.2,2.2,4.7c0.9,1.5,1.3,3.1,1.8,4.7c-0.2,0.2-0.3,0.5-0.2,0.7c0,0.2,0.1,0.3,0.3,0.4
				c0.6,0.5,1.8,0.3,2.5,0c0.3-0.1,0.6-0.3,0.8-0.4c0.3-0.2,0.9-0.7,0.7-1.2c0-0.1-0.1-0.2-0.1-0.3c0.5-1.3,0.7-2.6,1-3.9
				c0.3-1.4,0.8-2.8,1.3-4.1c0.1,0.6,0.1,1.2,0.2,1.9c0.2,2.6,0,5.1,0,7.6c0,0.8,0.1,1.6,0.2,2.5c0.1,0.3,0.4,1.8,0.3,1.9
				C15,33,15.2,33.6,16,33.8c0.9,0.2,2.1-0.1,2.8-0.7c1.2-1.1,0.6-2.8,0.4-4.2C18.7,26.5,19.2,23.9,19.1,21.5z"/>
			<path d="M27.5,22.2c-0.1-2-0.8-3.9-0.8-5.9c0-2.3,0.2-4.6-0.2-6.9c-0.1-0.7-4.1,0.1-3.9,1c0.3,2.1,0.2,4.2,0.2,6.4
				c0,2,0.5,3.9,0.7,5.9c0.3,2.1-0.1,4.2,0.1,6.2c0.1,1,0.8,2.7,0.1,3.6c-0.4,0.5,1.5,0.3,1.6,0.3c0.8-0.1,1.8-0.4,2.3-1
				c0.7-0.8,0.2-2.4,0.1-3.4C27.4,26.4,27.6,24.2,27.5,22.2z"/>
			<path d="M43.8,18.9c-2.1-2.8-5.9-0.8-8.6-1.5c-1.4-0.4-1.4-2.3-1.4-3.4c0-1.4-0.1-2.7-0.3-4.1c-0.1-1.1,0-2.1,0.7-2.9
				c0.1-0.1,0.9-0.3,0.8-0.3c0.4-0.1,0.7-0.1,1.1-0.1c1.5-0.1,4.6,0.2,4,2.5c-0.3,1,3.6,0.4,3.9-0.6c1.2-4.6-7.3-3.7-9.7-3.1
				c-2.2,0.6-4.6,1.8-4.8,4.4c-0.1,1.2,0.3,2.4,0.3,3.6c0.1,1.4-0.2,2.8,0.3,4.1c1.1,3,5.5,1.6,7.8,1.7c3.8,0.3,2.7,5.5,2.7,7.9
				c0,1.3,1.2,3.4,0.2,4.5c-0.6,0.7-2,0.7-2.8,0.8c-0.8,0.1-2.2,0.3-2.7-0.5c-1-1.4,0.1-3.8-0.1-5.4c-0.1-0.9-4.1-0.1-3.9,1
				c0.3,2.6-1.4,6.1,2.4,6.6c2.4,0.3,5.2-0.2,7.5-0.9c1.2-0.4,2.3-0.9,3.2-1.8c1-0.9,0.7-2.3,0.4-3.5C44.3,24.8,45.7,21.4,43.8,18.9z"
				/>
			<path d="M61.2,18.7c-0.1-3.8-0.7-7.5-0.7-11.3c0-2-4-1.3-4,0.3c0,3.6,0.5,7.2,0.7,10.8c0,0.1,0,0.1,0,0.2c-1.9,0-3.9,0.2-5.9,0.2
				c0.2-4.6-0.6-9.2-0.4-13.9c0-0.6-3.9-0.1-3.9,1c-0.2,4.5,0.6,8.9,0.5,13.4c-0.1,2.1-0.2,4.3-0.3,6.4c0,1.1,0.2,2.2,0.3,3.3
				c0.1,1,0.5,2.3,0.2,3.3c-0.2,0.8,3.6,0.3,3.9-0.7c0.5-1.8-0.2-4-0.4-5.8c-0.2-1.7,0-3.5,0.1-5.2c2-0.1,4.1-0.3,6.1,0
				c0.1,1.4,0.2,2.8,0.3,4.1c0.1,1.2,0.2,2.3,0.2,3.5c0,1,0.1,2.5-0.2,3.5c-0.8,2.1,3.1,1.9,3.7,0.4c0.7-1.9,0.5-4.2,0.4-6.2
				C61.6,23.5,61.2,21.1,61.2,18.7z"/>
			<path d="M78.1,23.1c-0.9-2.8-2.4-5.2-3.6-7.8c1-1.9,2-3.9,2.9-5.9c0.8-1.8,1.4-3.8,3.1-5.1c0.6-0.4,0.6-0.9-0.3-1
				c-0.9-0.1-2.1,0.2-2.8,0.7C76,5.3,75,6.7,74.3,8.4c-0.9,2.1-1.9,4.1-2.9,6.1c-0.1,0.1-0.1,0.3-0.2,0.4c-0.5,0.3-0.8,0.8-0.6,1.3
				c-0.8,1.6-1.6,3.1-2.5,4.6c-0.3-5.5-1-11.1-1.2-16.6c0-1.3-4-0.5-3.9,1c0.2,6.9,1.2,13.7,1.3,20.6c0,0,0,0,0,0.1
				c-0.3,0.3-0.2,0.5,0.1,0.6c0,1.8-0.1,3.5-0.2,5.3c-0.5,0.7,0.5,1.1,1.1,1.1c0,0,0.1,0,0.1,0c0.7,0,2.6-0.3,2.7-1.4
				c0.2-2.1,0.3-4.2,0.2-6.3c1.6-1.7,2.9-3.6,4.1-5.6c0.8,1.5,1.5,3,2,4.6c0.9,2.7,2.3,5.3,3.1,8c0.5,1.8,4.5,0.7,3.9-1
				C80.4,28.4,79,25.9,78.1,23.1z"/>
			<path d="M101.6,18.5c-0.2-0.8-1.4-0.8-2.3-0.8c0-0.3,0-0.7,0-1c-0.1-2.7-0.2-5.4-0.4-8c-0.2-2.5-1.6-3.3-4-3.2
				c-2.4,0.1-5.2,0.5-7.5,1.4c-2.6,1-4.1,2.9-4.6,5.7c-0.5,3,0.2,6.2,0.4,9.2c0.2,3.5,0.1,7,0.1,10.5c0,0.6,3.9,0,3.9-1
				c0-2.8,0-5.6,0-8.3c0-0.8-0.1-1.6-0.1-2.4c1.4-0.6,3.7,0,5.1,0.1c1.1,0.1,2.2-0.2,3.2-0.3c0,2.3,0.1,4.6,0.2,6.9
				c0,1.2,0.5,3.5-0.4,4.5c-0.4,0.5,1.5,0.3,1.6,0.3c0.8-0.1,1.8-0.4,2.3-1c0.9-1.1,0.5-3.8,0.4-5.1c-0.1-1.9-0.1-3.8-0.1-5.7
				C100.5,20.1,101.8,19.4,101.6,18.5z M87,18.4c-0.1-1.2-0.2-2.5-0.3-3.7c-0.2-2.3,0.1-5.6,2.3-7c0.6-0.4,1.7-0.3,2.4-0.4
				c1-0.2,2-0.4,2.8,0.2c1.2,0.8,0.9,3.7,0.9,4.9c0,2,0.2,4,0.3,6c-0.6,0.1-1.1,0.1-1.7,0.1C91.4,18.3,89.1,17.9,87,18.4z"/>
			<path d="M24.1,6.7c0.5-0.1,1-0.2,1.5-0.5C25.7,6.1,25.8,6,25.8,6c0.5-0.3,1-0.8,0.7-1.4c-0.5-1.1-0.4-2.2-0.4-3.4
				c0-1-1-1.2-1.8-1.2c-0.7,0.1-2.2,0.6-2.2,1.5c0,1-0.1,2,0.1,3c0,0.1-0.1,0.2-0.1,0.4c-0.1,0.2,0,0.4,0.1,0.6c0,0,0,0.1,0,0.1
				c0,0.1,0,0.2,0,0.3c0.1,0.2,0.2,0.4,0.4,0.5C23.2,6.7,23.7,6.7,24.1,6.7z"/>
		</g>
	</symbol>
	<symbol id="camera" viewBox="0 0 91 63" x="0px" y="0px">
		<g transform="translate(0 192)">
			<path d="M73.7-163.7l17-11.3v45.4l-17-11.3V-163.7z M68-163.7v22.7c0,6.3-5.1,11.3-11.3,11.3H11.3C5.1-129.6,0-134.7,0-141v-22.7
				c0-6.3,5.1-11.3,11.3-11.3h28.3c0-3.1,2.5-5.7,5.7-5.7v-5.7H14.2c-1.6,0-2.8-1.3-2.8-2.8c0-1.6,1.3-2.8,2.8-2.8h34
				c1.6,0,2.8,1.3,2.8,2.8v8.5c3.1,0,5.7,2.5,5.7,5.7C63-175,68-169.9,68-163.7z M34-163.7H11.3v22.7H34V-163.7z M56.7-160.8
				c0-1.6-1.3-2.8-2.8-2.8H42.5c-1.6,0-2.8,1.3-2.8,2.8c0,1.6,1.3,2.8,2.8,2.8h11.3C55.4-158,56.7-159.3,56.7-160.8z"/>
		</g>
	</symbol>
	<symbol id="play-video" viewBox="0 0 100.7 76.9" enable-background="new 0 0 100.7 76.9" x="0px" y="0px">
		<path fill="#63D1BB" d="M97,18.1c0,0-0.9-7-3.8-10.1c-3.6-4-7.7-4.1-9.5-4.3c-13.3-1-33.3-1-33.3-1h-0.1c0,0-20,0-33.3,1
			C15.1,4,11.1,4,7.4,8.1c-2.8,3.1-3.8,10.1-3.8,10.1s-0.9,8.2-0.9,16.4v7.7c0,8.2,0.9,16.4,0.9,16.4s0.9,7,3.8,10.1
			c3.6,4,8.4,3.9,10.5,4.3c7.6,0.8,32.4,1,32.4,1s20,0,33.3-1c1.9-0.2,5.9-0.3,9.5-4.3C96,65.7,97,58.7,97,58.7s0.9-8.2,0.9-16.4
			v-7.7C97.9,26.4,97,18.1,97,18.1z"/>
		<path fill="#FFFFFF" d="M50.3,76.9L50.3,76.9c-1,0-25-0.3-32.6-1l-0.1,0l-0.1,0c-0.3-0.1-0.7-0.1-1.1-0.2c-2.5-0.3-7.2-0.9-10.8-5
			C2.1,67,1.1,59.9,1,59l0,0c0-0.3-1-8.5-1-16.7v-7.7c0-8.3,0.9-16.4,0.9-16.7l0-0.1C1,17,2.1,9.9,5.4,6.2c4-4.4,8.5-4.9,10.7-5.1
			c0.2,0,0.4,0,0.5-0.1l0.1,0C30,0,50.1,0,50.3,0h0.1c0.2,0,20.2,0,33.5,1L84,1c0.2,0,0.3,0,0.5,0.1c2.2,0.2,6.7,0.7,10.7,5.1
			c3.4,3.6,4.4,10.8,4.5,11.6l0,0c0,0.3,1,8.5,1,16.8v7.7c0,8.3-0.9,16.4-1,16.7l0,0.1c-0.1,0.8-1.2,8-4.5,11.6
			c-4,4.4-8.5,4.9-10.7,5.1c-0.2,0-0.4,0-0.5,0.1l-0.1,0C70.6,76.9,50.5,76.9,50.3,76.9L50.3,76.9L50.3,76.9z M18.4,70.4
			c7.5,0.7,31.2,1,32,1c0.7,0,20.1,0,33-1c0.2,0,0.4,0,0.6-0.1c1.8-0.2,4.6-0.5,7.2-3.3l0,0c1.8-2,2.9-6.9,3.1-8.6
			c0.1-0.5,0.9-8.4,0.9-16.1v-7.7c0-7.8-0.9-15.6-1-16.1c-0.3-2.4-1.4-6.8-3.1-8.5l0,0c-2.6-2.9-5.4-3.1-7.2-3.3
			c-0.2,0-0.4,0-0.6-0.1c-13.1-1-32.8-1-33-1h-0.1c-0.2,0-20,0-33,1c-0.2,0-0.4,0-0.6,0.1C14.8,6.8,12.1,7,9.5,9.9l0,0
			c-1.8,2-2.9,6.9-3.1,8.6c-0.1,0.6-0.9,8.4-0.9,16.1v7.7c0,7.7,0.9,15.6,0.9,16.1c0.3,2.4,1.4,6.8,3.1,8.5l0,0
			c2.3,2.6,5.3,3,7.5,3.3C17.5,70.3,17.9,70.3,18.4,70.4z"/>
		<polygon fill="#FFFFFF" points="38.4,20.6 38.4,56.3 68.2,38.4"/>
	</symbol>
</svg>
